#define 844eb3cc4e214a758eb27b83ed193692bUyDzqSye5zr4hKO_width 16
#define 844eb3cc4e214a758eb27b83ed193692bUyDzqSye5zr4hKO_height 16
static char 844eb3cc4e214a758eb27b83ed193692bUyDzqSye5zr4hKO_bits[] = {
  0xFC, 0x3F, 0x06, 0x60, 0x03, 0xC0, 0x01, 0x80, 0x01, 0x80, 0x01, 0x80, 
  0x01, 0x80, 0x01, 0x80, 0x01, 0x80, 0x01, 0x80, 0x01, 0x80, 0x01, 0x80, 
  0x01, 0x80, 0x03, 0xC0, 0x06, 0x60, 0xFC, 0x3F, };
